# xmcd CD database file
#
# Track frame offsets:
#	150
#	8054
#	51028
#	85515
#	138205
#	165435
#	218739
#	248129
#	269321
#	300593
#
# Disc length: 4221 seconds
#
# Revision: 0
# Processed by: cddbd v1.5.2PL0 Copyright (c) Steve Scherf et al.
# Submitted via: CDex 1.51
#
DISCID=72107b0a
DTITLE=Maria Joao - Mumadji
DYEAR=2001
DGENRE=Jazz
TTITLE0=Em tão pouco tempo escureceu tanto
TTITLE1=Preto e branco
TTITLE2=Um choro feliz
TTITLE3=Asa branca
TTITLE4=O chão da terra
TTITLE5=Há gente aqui
TTITLE6=Mm amor
TTITLE7=Rafael ou a cor de Moçambique
TTITLE8=Nazuk
TTITLE9=Forró da Rosinha
EXTD=YEAR: 2001
EXTT0=
EXTT1=
EXTT2=
EXTT3=
EXTT4=
EXTT5=
EXTT6=
EXTT7=
EXTT8=
EXTT9=
PLAYORDER=
